<svg xmlns="http://www.w3.org/2000/svg" version="1.1" xmlns:xlink="http://www.w3.org/1999/xlink" xmlns:svgjs="http://svgjs.dev/svgjs" width="1000" height="373" viewBox="0 0 1000 373"><g transform="matrix(1,0,0,1,-0.6060397182355359,-0.46928816485092284)"><svg viewBox="0 0 396 148" data-background-color="#ffffff" preserveAspectRatio="xMidYMid meet" height="373" width="1000" xmlns="http://www.w3.org/2000/svg" xmlns:xlink="http://www.w3.org/1999/xlink"><g id="tight-bounds" transform="matrix(1,0,0,1,0.23999182093507443,0.18620549168348077)"><svg viewBox="0 0 395.52 147.62758901663304" height="147.62758901663304" width="395.52"><g><svg viewBox="0 0 395.52 147.62758901663304" height="147.62758901663304" width="395.52"><g transform="matrix(1,0,0,1,0,83.5123086392253)"><svg viewBox="0 0 395.52 64.11528037740774" height="64.11528037740774" width="395.52"><g id="textblocktransform"><svg viewBox="0 0 395.52 64.11528037740774" height="64.11528037740774" width="395.52" id="textblock"><g><svg viewBox="0 0 395.52 34.580718577559786" height="34.580718577559786" width="395.52"><g transform="matrix(1,0,0,1,0,0)"><svg width="395.52" viewBox="2.1500000953674316 -35.29999923706055 407.7200012207031 35.64999771118164" height="34.580718577559786" data-palette-color="#1c4b82"><path d="M2.15-17.45Q2.15-22.55 4.45-26.63 6.75-30.7 10.73-33 14.7-35.3 19.55-35.3L19.55-35.3Q25.25-35.3 29.5-32.55 33.75-29.8 35.7-24.75L35.7-24.75 30.25-24.75Q28.8-27.9 26.08-29.6 23.35-31.3 19.55-31.3L19.55-31.3Q15.9-31.3 13-29.6 10.1-27.9 8.45-24.78 6.8-21.65 6.8-17.45L6.8-17.45Q6.8-13.3 8.45-10.18 10.1-7.05 13-5.35 15.9-3.65 19.55-3.65L19.55-3.65Q23.35-3.65 26.08-5.33 28.8-7 30.25-10.15L30.25-10.15 35.7-10.15Q33.75-5.15 29.5-2.43 25.25 0.3 19.55 0.3L19.55 0.3Q14.7 0.3 10.73-1.98 6.75-4.25 4.45-8.3 2.15-12.35 2.15-17.45L2.15-17.45ZM58.25 0.35Q53.4 0.35 49.4-1.93 45.4-4.2 43.07-8.28 40.75-12.35 40.75-17.45L40.75-17.45Q40.75-22.55 43.07-26.63 45.4-30.7 49.4-32.98 53.4-35.25 58.25-35.25L58.25-35.25Q63.15-35.25 67.15-32.98 71.15-30.7 73.45-26.65 75.75-22.6 75.75-17.45L75.75-17.45Q75.75-12.3 73.45-8.25 71.15-4.2 67.15-1.93 63.15 0.35 58.25 0.35L58.25 0.35ZM58.25-3.6Q61.9-3.6 64.82-5.3 67.75-7 69.42-10.15 71.1-13.3 71.1-17.45L71.1-17.45Q71.1-21.65 69.42-24.78 67.75-27.9 64.85-29.6 61.95-31.3 58.25-31.3L58.25-31.3Q54.55-31.3 51.65-29.6 48.75-27.9 47.07-24.78 45.4-21.65 45.4-17.45L45.4-17.45Q45.4-13.3 47.07-10.15 48.75-7 51.67-5.3 54.6-3.6 58.25-3.6L58.25-3.6ZM86.3-34.85L86.3-3.7 98.5-3.7 98.5 0 81.75 0 81.75-34.85 86.3-34.85ZM119.14 0.35Q114.29 0.35 110.29-1.93 106.29-4.2 103.97-8.28 101.64-12.35 101.64-17.45L101.64-17.45Q101.64-22.55 103.97-26.63 106.29-30.7 110.29-32.98 114.29-35.25 119.14-35.25L119.14-35.25Q124.04-35.25 128.04-32.98 132.04-30.7 134.34-26.65 136.64-22.6 136.64-17.45L136.64-17.45Q136.64-12.3 134.34-8.25 132.04-4.2 128.04-1.93 124.04 0.35 119.14 0.35L119.14 0.35ZM119.14-3.6Q122.79-3.6 125.72-5.3 128.64-7 130.32-10.15 131.99-13.3 131.99-17.45L131.99-17.45Q131.99-21.65 130.32-24.78 128.64-27.9 125.74-29.6 122.84-31.3 119.14-31.3L119.14-31.3Q115.44-31.3 112.54-29.6 109.64-27.9 107.97-24.78 106.29-21.65 106.29-17.45L106.29-17.45Q106.29-13.3 107.97-10.15 109.64-7 112.57-5.3 115.49-3.6 119.14-3.6L119.14-3.6ZM173.14-34.6L177.99-34.6 177.99 0 173.44 0 173.44-25.8 161.94 0 158.74 0 147.19-25.85 147.19 0 142.64 0 142.64-34.6 147.54-34.6 160.34-6 173.14-34.6ZM203.14-17.95Q205.04-17.65 206.61-16.4 208.19-15.15 209.11-13.3 210.04-11.45 210.04-9.35L210.04-9.35Q210.04-6.7 208.69-4.58 207.34-2.45 204.76-1.23 202.19 0 198.69 0L198.69 0 185.69 0 185.69-34.85 198.19-34.85Q201.74-34.85 204.24-33.68 206.74-32.5 207.99-30.5 209.24-28.5 209.24-26L209.24-26Q209.24-22.9 207.56-20.88 205.89-18.85 203.14-17.95L203.14-17.95ZM190.24-31.1L190.24-19.8 197.89-19.8Q201.09-19.8 202.84-21.3 204.59-22.8 204.59-25.45L204.59-25.45Q204.59-28.1 202.84-29.6 201.09-31.1 197.79-31.1L197.79-31.1 190.24-31.1ZM198.29-3.75Q201.69-3.75 203.59-5.35 205.49-6.95 205.49-9.8L205.49-9.8Q205.49-12.7 203.49-14.38 201.49-16.05 198.14-16.05L198.14-16.05 190.24-16.05 190.24-3.75 198.29-3.75ZM216.34-34.85L220.89-34.85 220.89 0 216.34 0 216.34-34.85ZM252.03 0L249.23-7.75 234.03-7.75 231.23 0 226.43 0 239.03-34.65 244.28-34.65 256.83 0 252.03 0ZM235.33-11.45L247.93-11.45 241.63-29.05 235.33-11.45ZM286.13 0L280.68 0 272.38-14.25 266.88-14.25 266.88 0 262.33 0 262.33-34.85 273.58-34.85Q277.53-34.85 280.26-33.5 282.98-32.15 284.33-29.85 285.68-27.55 285.68-24.6L285.68-24.6Q285.68-21 283.61-18.25 281.53-15.5 277.38-14.6L277.38-14.6 286.13 0ZM266.88-31.1L266.88-17.9 273.58-17.9Q277.28-17.9 279.13-19.73 280.98-21.55 280.98-24.6L280.98-24.6Q280.98-27.7 279.16-29.4 277.33-31.1 273.58-31.1L273.58-31.1 266.88-31.1ZM292.63-34.85L297.18-34.85 297.18-12.8Q297.18-8.15 299.45-5.9 301.73-3.65 305.78-3.65L305.78-3.65Q309.78-3.65 312.05-5.9 314.33-8.15 314.33-12.8L314.33-12.8 314.33-34.85 318.88-34.85 318.88-12.85Q318.88-8.5 317.13-5.53 315.38-2.55 312.4-1.1 309.43 0.35 305.73 0.35L305.73 0.35Q302.03 0.35 299.05-1.1 296.08-2.55 294.35-5.53 292.63-8.5 292.63-12.85L292.63-12.85 292.63-34.85ZM324.33-34.85L347.93-34.85 347.93-31.15 338.43-31.15 338.43 0 333.88 0 333.88-31.15 324.33-31.15 324.33-34.85ZM376.92 0L374.12-7.75 358.92-7.75 356.12 0 351.32 0 363.92-34.65 369.17-34.65 381.72 0 376.92 0ZM360.22-11.45L372.82-11.45 366.52-29.05 360.22-11.45ZM398.27 0.35Q394.82 0.35 392.1-0.88 389.37-2.1 387.82-4.28 386.27-6.45 386.22-9.3L386.22-9.3 391.07-9.3Q391.32-6.85 393.1-5.18 394.87-3.5 398.27-3.5L398.27-3.5Q401.52-3.5 403.4-5.13 405.27-6.75 405.27-9.3L405.27-9.3Q405.27-11.3 404.17-12.55 403.07-13.8 401.42-14.45 399.77-15.1 396.97-15.85L396.97-15.85Q393.52-16.75 391.45-17.65 389.37-18.55 387.9-20.48 386.42-22.4 386.42-25.65L386.42-25.65Q386.42-28.5 387.87-30.7 389.32-32.9 391.95-34.1 394.57-35.3 397.97-35.3L397.97-35.3Q402.87-35.3 406-32.85 409.12-30.4 409.52-26.35L409.52-26.35 404.52-26.35Q404.27-28.35 402.42-29.88 400.57-31.4 397.52-31.4L397.52-31.4Q394.67-31.4 392.87-29.93 391.07-28.45 391.07-25.8L391.07-25.8Q391.07-23.9 392.15-22.7 393.22-21.5 394.8-20.88 396.37-20.25 399.22-19.45L399.22-19.45Q402.67-18.5 404.77-17.57 406.87-16.65 408.37-14.73 409.87-12.8 409.87-9.5L409.87-9.5Q409.87-6.95 408.52-4.7 407.17-2.45 404.52-1.05 401.87 0.35 398.27 0.35L398.27 0.35Z" opacity="1" transform="matrix(1,0,0,1,0,0)" fill="#1c4b82" class="wordmark-text-0" data-fill-palette-color="primary" id="text-0"></path></svg></g></svg></g><g transform="matrix(1,0,0,1,0,42.74439629647579)"><svg viewBox="0 0 395.52 21.370884080931948" height="21.370884080931948" width="395.52"><g transform="matrix(1,0,0,1,0,0)"><svg width="395.52" viewBox="6.150000095367432 -47 1289.0699462890625 69.75" height="21.370884080931948" data-palette-color="#1c4b82"><path d="M43.2-21.6Q44.35-21.6 44.88-21.1 45.4-20.6 45.4-19.8L45.4-19.8Q45.4-18.5 44.63-17.5 43.85-16.5 42.2-16.45L42.2-16.45Q38.2-16.35 35.1-17.05L35.1-17.05Q31.55-9.6 26.53-4.67 21.5 0.25 16.45 0.25L16.45 0.25Q11.25 0.25 8.7-5.8 6.15-11.85 6.15-22.15L6.15-22.15Q6.15-30.95 7.4-37.95L7.4-37.95Q7.85-40.55 8.68-41.48 9.5-42.4 11.5-42.4L11.5-42.4Q14.8-42.4 14.8-39.55L14.8-39.55Q14.8-39.25 14.7-38.45L14.7-38.45Q13.2-29.45 13.2-22.15L13.2-22.15Q13.2-14.5 14.48-10.53 15.75-6.55 18.3-6.55L18.3-6.55Q20.9-6.55 23.95-10.15 27-13.75 29.55-19.2L29.55-19.2Q26.5-21.1 24.95-24.13 23.4-27.15 23.4-31.1L23.4-31.1Q23.4-35.05 24.63-37.77 25.85-40.5 27.98-41.85 30.1-43.2 32.7-43.2L32.7-43.2Q35.9-43.2 37.77-40.9 39.65-38.6 39.65-34.6L39.65-34.6Q39.65-28.85 37.15-22.05L37.15-22.05Q39.8-21.6 43.2-21.6L43.2-21.6ZM28.45-31.45Q28.45-26.55 31.6-24.2L31.6-24.2Q33.55-29.8 33.55-33.45L33.55-33.45Q33.55-35.55 33-36.52 32.45-37.5 31.5-37.5L31.5-37.5Q30.15-37.5 29.3-35.93 28.45-34.35 28.45-31.45L28.45-31.45ZM57.56-26.6Q55.46-26.6 54.41-27.58 53.36-28.55 53.36-30.3L53.36-30.3Q53.36-32.05 54.74-33.23 56.11-34.4 58.16-34.4L58.16-34.4Q60.01-34.4 61.16-33.5 62.31-32.6 62.31-30.95L62.31-30.95Q62.31-28.95 61.01-27.78 59.71-26.6 57.56-26.6L57.56-26.6ZM57.16 0.25Q53.91 0.25 52.44-2.05 50.96-4.35 50.96-8.15L50.96-8.15Q50.96-10.4 51.54-13.93 52.11-17.45 53.01-20.5L53.01-20.5Q53.46-22.1 54.21-22.7 54.96-23.3 56.61-23.3L56.61-23.3Q59.16-23.3 59.16-21.6L59.16-21.6Q59.16-20.35 58.21-15.8L58.21-15.8Q57.01-10.3 57.01-8.35L57.01-8.35Q57.01-6.85 57.41-6.05 57.81-5.25 58.76-5.25L58.76-5.25Q59.66-5.25 61.01-6.5 62.36-7.75 64.61-10.45L64.61-10.45Q65.21-11.15 65.96-11.15L65.96-11.15Q66.61-11.15 66.99-10.55 67.36-9.95 67.36-8.9L67.36-8.9Q67.36-6.9 66.41-5.8L66.41-5.8Q61.46 0.25 57.16 0.25L57.16 0.25ZM79.93 0.25Q76.83 0.25 74.98-2 73.13-4.25 73.13-7.9L73.13-7.9Q73.13-11.9 74.98-15.48 76.83-19.05 79.9-21.23 82.98-23.4 86.43-23.4L86.43-23.4Q87.53-23.4 87.9-22.98 88.28-22.55 88.53-21.45L88.53-21.45Q89.58-21.65 90.73-21.65L90.73-21.65Q93.18-21.65 93.18-19.9L93.18-19.9Q93.18-18.85 92.43-14.9L92.43-14.9Q91.28-9.15 91.28-6.9L91.28-6.9Q91.28-6.15 91.65-5.7 92.03-5.25 92.63-5.25L92.63-5.25Q93.58-5.25 94.93-6.48 96.28-7.7 98.58-10.45L98.58-10.45Q99.18-11.15 99.93-11.15L99.93-11.15Q100.58-11.15 100.95-10.55 101.33-9.95 101.33-8.9L101.33-8.9Q101.33-6.9 100.38-5.8L100.38-5.8Q98.33-3.25 96.03-1.5 93.73 0.25 91.58 0.25L91.58 0.25Q89.93 0.25 88.55-0.88 87.18-2 86.48-3.95L86.48-3.95Q83.88 0.25 79.93 0.25L79.93 0.25ZM81.73-4.8Q82.83-4.8 83.83-6.1 84.83-7.4 85.28-9.55L85.28-9.55 87.13-18.75Q85.03-18.7 83.25-17.18 81.48-15.65 80.43-13.15 79.38-10.65 79.38-7.85L79.38-7.85Q79.38-6.3 80-5.55 80.63-4.8 81.73-4.8L81.73-4.8ZM113.09-26.6Q110.99-26.6 109.94-27.58 108.89-28.55 108.89-30.3L108.89-30.3Q108.89-32.05 110.27-33.23 111.64-34.4 113.69-34.4L113.69-34.4Q115.54-34.4 116.69-33.5 117.84-32.6 117.84-30.95L117.84-30.95Q117.84-28.95 116.54-27.78 115.24-26.6 113.09-26.6L113.09-26.6ZM122.09-11.05Q122.74-11.05 123.12-10.43 123.49-9.8 123.49-8.85L123.49-8.85Q123.49-7.7 123.14-7.05 122.79-6.4 122.04-5.9L122.04-5.9Q118.54-3.6 112.69 0.45L112.69 0.45Q110.74 10.85 107.64 16.8 104.54 22.75 99.74 22.75L99.74 22.75Q97.14 22.75 95.57 21.18 93.99 19.6 93.99 17.05L93.99 17.05Q93.99 13.5 96.74 9.47 99.49 5.45 107.09-0.45L107.09-0.45 107.44-3Q108.14-7.8 108.54-12.45L108.54-12.45Q108.84-15.15 109.49-20.5L109.49-20.5Q109.69-21.95 110.59-22.63 111.49-23.3 113.34-23.3L113.34-23.3Q114.84-23.3 115.32-22.85 115.79-22.4 115.79-21.6L115.79-21.6Q115.79-19.3 114.14-8.9L114.14-8.9 113.64-5.45Q117.64-8.45 120.94-10.65L120.94-10.65Q121.59-11.05 122.09-11.05L122.09-11.05ZM100.29 17.9Q101.59 17.9 103.14 14.95 104.69 12 106.04 5.45L106.04 5.45Q102.24 8.7 100.57 11.33 98.89 13.95 98.89 15.95L98.89 15.95Q98.89 17.9 100.29 17.9L100.29 17.9ZM136.56 0.25Q133.46 0.25 131.61-2 129.76-4.25 129.76-7.9L129.76-7.9Q129.76-11.9 131.61-15.48 133.46-19.05 136.53-21.23 139.61-23.4 143.06-23.4L143.06-23.4Q144.16-23.4 144.53-22.98 144.91-22.55 145.16-21.45L145.16-21.45Q146.21-21.65 147.36-21.65L147.36-21.65Q149.81-21.65 149.81-19.9L149.81-19.9Q149.81-18.85 149.06-14.9L149.06-14.9Q147.91-9.15 147.91-6.9L147.91-6.9Q147.91-6.15 148.28-5.7 148.66-5.25 149.26-5.25L149.26-5.25Q150.21-5.25 151.56-6.48 152.91-7.7 155.21-10.45L155.21-10.45Q155.81-11.15 156.56-11.15L156.56-11.15Q157.21-11.15 157.58-10.55 157.96-9.95 157.96-8.9L157.96-8.9Q157.96-6.9 157.01-5.8L157.01-5.8Q154.96-3.25 152.66-1.5 150.36 0.25 148.21 0.25L148.21 0.25Q146.56 0.25 145.18-0.88 143.81-2 143.11-3.95L143.11-3.95Q140.51 0.25 136.56 0.25L136.56 0.25ZM138.36-4.8Q139.46-4.8 140.46-6.1 141.46-7.4 141.91-9.55L141.91-9.55 143.76-18.75Q141.66-18.7 139.88-17.18 138.11-15.65 137.06-13.15 136.01-10.65 136.01-7.85L136.01-7.85Q136.01-6.3 136.63-5.55 137.26-4.8 138.36-4.8L138.36-4.8ZM197.64 0.25Q192.74 0.25 190.01-2.53 187.29-5.3 187.29-9.85L187.29-9.85Q187.29-13.9 188.89-16.95 190.49-20 193.04-21.65 195.59-23.3 198.39-23.3L198.39-23.3Q201.14-23.3 202.66-21.68 204.19-20.05 204.19-17.5L204.19-17.5Q204.19-15.4 203.26-13.95 202.34-12.5 200.84-12.5L200.84-12.5Q199.89-12.5 199.31-12.95 198.74-13.4 198.74-14.2L198.74-14.2Q198.74-14.55 198.84-15 198.94-15.45 198.99-15.65L198.99-15.65Q199.24-16.4 199.24-17.05L199.24-17.05Q199.24-17.7 198.91-18.05 198.59-18.4 197.99-18.4L197.99-18.4Q196.84-18.4 195.84-17.38 194.84-16.35 194.24-14.6 193.64-12.85 193.64-10.75L193.64-10.75Q193.64-4.95 198.69-4.95L198.69-4.95Q200.74-4.95 203.11-6.33 205.49-7.7 207.79-10.45L207.79-10.45Q208.39-11.15 209.14-11.15L209.14-11.15Q209.79-11.15 210.16-10.55 210.54-9.95 210.54-8.9L210.54-8.9Q210.54-7 209.59-5.8L209.59-5.8Q207.24-2.9 203.96-1.33 200.69 0.25 197.64 0.25L197.64 0.25ZM242.45-15.35Q243.1-15.35 243.45-14.7 243.8-14.05 243.8-13.05L243.8-13.05Q243.8-10.65 242.35-10.2L242.35-10.2Q239.35-9.15 235.75-9L235.75-9Q234.8-4.8 232-2.27 229.2 0.25 225.65 0.25L225.65 0.25Q222.65 0.25 220.53-1.2 218.4-2.65 217.3-5.05 216.2-7.45 216.2-10.25L216.2-10.25Q216.2-14.05 217.65-17.03 219.1-20 221.65-21.68 224.2-23.35 227.3-23.35L227.3-23.35Q231.1-23.35 233.43-20.73 235.75-18.1 236.15-14.25L236.15-14.25Q238.5-14.4 241.75-15.25L241.75-15.25Q242.15-15.35 242.45-15.35L242.45-15.35ZM226.05-5.05Q227.65-5.05 228.83-6.35 230-7.65 230.4-10.1L230.4-10.1Q228.85-11.15 228.03-12.85 227.2-14.55 227.2-16.45L227.2-16.45Q227.2-17.25 227.35-18.05L227.35-18.05 227.1-18.05Q225.1-18.05 223.78-16.13 222.45-14.2 222.45-10.7L222.45-10.7Q222.45-7.95 223.53-6.5 224.6-5.05 226.05-5.05L226.05-5.05ZM253.52 0.25Q251.62 0.25 250.84-1.75 250.07-3.75 250.07-8.15L250.07-8.15Q250.07-14.65 251.92-20.5L251.92-20.5Q252.37-21.95 253.39-22.63 254.42-23.3 256.27-23.3L256.27-23.3Q257.27-23.3 257.67-23.05 258.07-22.8 258.07-22.1L258.07-22.1Q258.07-21.3 257.32-18.5L257.32-18.5Q256.82-16.5 256.52-15 256.22-13.5 256.02-11.3L256.02-11.3Q257.67-15.6 259.72-18.3 261.77-21 263.74-22.15 265.72-23.3 267.37-23.3L267.37-23.3Q270.62-23.3 270.62-20.05L270.62-20.05Q270.62-18.1 269.52-13L269.52-13Q268.57-8.65 268.57-7.25L268.57-7.25Q268.57-5.25 270.02-5.25L270.02-5.25Q271.02-5.25 272.39-6.48 273.77-7.7 276.07-10.45L276.07-10.45Q276.67-11.15 277.42-11.15L277.42-11.15Q278.07-11.15 278.44-10.55 278.82-9.95 278.82-8.9L278.82-8.9Q278.82-6.9 277.87-5.8L277.87-5.8Q275.72-3.15 273.24-1.45 270.77 0.25 267.62 0.25L267.62 0.25Q265.07 0.25 263.77-1.23 262.47-2.7 262.47-5.5L262.47-5.5Q262.47-6.9 263.17-10.5L263.17-10.5Q263.82-13.65 263.82-14.85L263.82-14.85Q263.82-15.65 263.27-15.65L263.27-15.65Q262.62-15.65 261.44-13.98 260.27-12.3 259.04-9.55 257.82-6.8 257.07-3.75L257.07-3.75Q256.52-1.4 255.79-0.58 255.07 0.25 253.52 0.25L253.52 0.25ZM318.5 0.25Q313.6 0.25 310.87-2.53 308.15-5.3 308.15-9.85L308.15-9.85Q308.15-13.9 309.75-16.95 311.35-20 313.9-21.65 316.45-23.3 319.25-23.3L319.25-23.3Q322-23.3 323.52-21.68 325.05-20.05 325.05-17.5L325.05-17.5Q325.05-15.4 324.12-13.95 323.2-12.5 321.7-12.5L321.7-12.5Q320.75-12.5 320.17-12.95 319.6-13.4 319.6-14.2L319.6-14.2Q319.6-14.55 319.7-15 319.8-15.45 319.85-15.65L319.85-15.65Q320.1-16.4 320.1-17.05L320.1-17.05Q320.1-17.7 319.77-18.05 319.45-18.4 318.85-18.4L318.85-18.4Q317.7-18.4 316.7-17.38 315.7-16.35 315.1-14.6 314.5-12.85 314.5-10.75L314.5-10.75Q314.5-4.95 319.55-4.95L319.55-4.95Q321.6-4.95 323.97-6.33 326.35-7.7 328.65-10.45L328.65-10.45Q329.25-11.15 330-11.15L330-11.15Q330.65-11.15 331.02-10.55 331.4-9.95 331.4-8.9L331.4-8.9Q331.4-7 330.45-5.8L330.45-5.8Q328.1-2.9 324.82-1.33 321.55 0.25 318.5 0.25L318.5 0.25ZM363.31-15.35Q363.96-15.35 364.31-14.7 364.66-14.05 364.66-13.05L364.66-13.05Q364.66-10.65 363.21-10.2L363.21-10.2Q360.21-9.15 356.61-9L356.61-9Q355.66-4.8 352.86-2.27 350.06 0.25 346.51 0.25L346.51 0.25Q343.51 0.25 341.39-1.2 339.26-2.65 338.16-5.05 337.06-7.45 337.06-10.25L337.06-10.25Q337.06-14.05 338.51-17.03 339.96-20 342.51-21.68 345.06-23.35 348.16-23.35L348.16-23.35Q351.96-23.35 354.29-20.73 356.61-18.1 357.01-14.25L357.01-14.25Q359.36-14.4 362.61-15.25L362.61-15.25Q363.01-15.35 363.31-15.35L363.31-15.35ZM346.91-5.05Q348.51-5.05 349.69-6.35 350.86-7.65 351.26-10.1L351.26-10.1Q349.71-11.15 348.89-12.85 348.06-14.55 348.06-16.45L348.06-16.45Q348.06-17.25 348.21-18.05L348.21-18.05 347.96-18.05Q345.96-18.05 344.64-16.13 343.31-14.2 343.31-10.7L343.31-10.7Q343.31-7.95 344.39-6.5 345.46-5.05 346.91-5.05L346.91-5.05ZM374.38 0.25Q372.48 0.25 371.7-1.75 370.93-3.75 370.93-8.15L370.93-8.15Q370.93-14.65 372.78-20.5L372.78-20.5Q373.23-21.95 374.25-22.63 375.28-23.3 377.13-23.3L377.13-23.3Q378.13-23.3 378.53-23.05 378.93-22.8 378.93-22.1L378.93-22.1Q378.93-21.3 378.18-18.5L378.18-18.5Q377.68-16.5 377.38-15 377.08-13.5 376.88-11.3L376.88-11.3Q378.53-15.6 380.58-18.3 382.63-21 384.6-22.15 386.58-23.3 388.23-23.3L388.23-23.3Q391.48-23.3 391.48-20.05L391.48-20.05Q391.48-18.1 390.38-13L390.38-13Q389.43-8.65 389.43-7.25L389.43-7.25Q389.43-5.25 390.88-5.25L390.88-5.25Q391.88-5.25 393.25-6.48 394.63-7.7 396.93-10.45L396.93-10.45Q397.53-11.15 398.28-11.15L398.28-11.15Q398.93-11.15 399.3-10.55 399.68-9.95 399.68-8.9L399.68-8.9Q399.68-6.9 398.73-5.8L398.73-5.8Q396.58-3.15 394.1-1.45 391.63 0.25 388.48 0.25L388.48 0.25Q385.93 0.25 384.63-1.23 383.33-2.7 383.33-5.5L383.33-5.5Q383.33-6.9 384.03-10.5L384.03-10.5Q384.68-13.65 384.68-14.85L384.68-14.85Q384.68-15.65 384.13-15.65L384.13-15.65Q383.48-15.65 382.3-13.98 381.13-12.3 379.9-9.55 378.68-6.8 377.93-3.75L377.93-3.75Q377.38-1.4 376.65-0.58 375.93 0.25 374.38 0.25L374.38 0.25ZM425.54-14Q426.94-14 426.94-11.9L426.94-11.9Q426.94-7.95 420.74-7.95L420.74-7.95Q419.54-7.95 417.29-8.4L417.29-8.4Q417.94-5.3 418.37-1.53 418.79 2.25 418.79 4.7L418.79 4.7Q418.79 10.1 417.04 12.95 415.29 15.8 412.44 15.8L412.44 15.8Q408.84 15.8 407.32 10.7 405.79 5.6 405.79-4.7L405.79-4.7Q405.79-14.3 407.87-24.18 409.94-34.05 413.57-40.53 417.19-47 421.54-47L421.54-47Q423.89-47 425.22-44.9 426.54-42.8 426.54-39.25L426.54-39.25Q426.54-27.5 412.49-13.65L412.49-13.65Q411.99-8.75 411.99-5.05L411.99-5.05Q411.99 0.1 412.34 5.53 412.69 10.95 413.49 10.95L413.49 10.95Q414.99 10.95 414.99 5.75L414.99 5.75Q414.99 1.85 414.47-1.8 413.94-5.45 413.04-9.5L413.04-9.5Q412.99-10.15 413.47-11.15 413.94-12.15 414.64-12.9 415.34-13.65 415.89-13.65L415.89-13.65Q416.89-13.65 418.29-13.55L418.29-13.55Q418.74-13.5 419.34-13.5L419.34-13.5Q421.34-13.5 423.79-13.85L423.79-13.85Q424.19-13.9 424.64-13.95 425.09-14 425.54-14L425.54-14ZM420.49-42.05Q419.59-42.05 418.27-39 416.94-35.95 415.64-30.93 414.34-25.9 413.39-20.3L413.39-20.3Q417.39-24.85 419.54-29.78 421.69-34.7 421.74-39L421.74-39Q421.74-42.05 420.49-42.05L420.49-42.05ZM440.16-26.6Q438.06-26.6 437.01-27.58 435.96-28.55 435.96-30.3L435.96-30.3Q435.96-32.05 437.33-33.23 438.71-34.4 440.76-34.4L440.76-34.4Q442.61-34.4 443.76-33.5 444.91-32.6 444.91-30.95L444.91-30.95Q444.91-28.95 443.61-27.78 442.31-26.6 440.16-26.6L440.16-26.6ZM439.76 0.25Q436.51 0.25 435.03-2.05 433.56-4.35 433.56-8.15L433.56-8.15Q433.56-10.4 434.13-13.93 434.71-17.45 435.61-20.5L435.61-20.5Q436.06-22.1 436.81-22.7 437.56-23.3 439.21-23.3L439.21-23.3Q441.76-23.3 441.76-21.6L441.76-21.6Q441.76-20.35 440.81-15.8L440.81-15.8Q439.61-10.3 439.61-8.35L439.61-8.35Q439.61-6.85 440.01-6.05 440.41-5.25 441.36-5.25L441.36-5.25Q442.26-5.25 443.61-6.5 444.96-7.75 447.21-10.45L447.21-10.45Q447.81-11.15 448.56-11.15L448.56-11.15Q449.21-11.15 449.58-10.55 449.96-9.95 449.96-8.9L449.96-8.9Q449.96-6.9 449.01-5.8L449.01-5.8Q444.06 0.25 439.76 0.25L439.76 0.25ZM462.52 0.25Q459.42 0.25 457.57-2 455.72-4.25 455.72-7.9L455.72-7.9Q455.72-11.9 457.57-15.48 459.42-19.05 462.5-21.23 465.57-23.4 469.02-23.4L469.02-23.4Q470.12-23.4 470.5-22.98 470.87-22.55 471.12-21.45L471.12-21.45Q472.17-21.65 473.32-21.65L473.32-21.65Q475.77-21.65 475.77-19.9L475.77-19.9Q475.77-18.85 475.02-14.9L475.02-14.9Q473.87-9.15 473.87-6.9L473.87-6.9Q473.87-6.15 474.25-5.7 474.62-5.25 475.22-5.25L475.22-5.25Q476.17-5.25 477.52-6.48 478.87-7.7 481.17-10.45L481.17-10.45Q481.77-11.15 482.52-11.15L482.52-11.15Q483.17-11.15 483.55-10.55 483.92-9.95 483.92-8.9L483.92-8.9Q483.92-6.9 482.97-5.8L482.97-5.8Q480.92-3.25 478.62-1.5 476.32 0.25 474.17 0.25L474.17 0.25Q472.52 0.25 471.15-0.88 469.77-2 469.07-3.95L469.07-3.95Q466.47 0.25 462.52 0.25L462.52 0.25ZM464.32-4.8Q465.42-4.8 466.42-6.1 467.42-7.4 467.87-9.55L467.87-9.55 469.72-18.75Q467.62-18.7 465.85-17.18 464.07-15.65 463.02-13.15 461.97-10.65 461.97-7.85L461.97-7.85Q461.97-6.3 462.6-5.55 463.22-4.8 464.32-4.8L464.32-4.8ZM493.89 0.25Q491.99 0.25 491.21-1.75 490.44-3.75 490.44-8.15L490.44-8.15Q490.44-14.65 492.29-20.5L492.29-20.5Q492.74-21.95 493.76-22.63 494.79-23.3 496.64-23.3L496.64-23.3Q497.64-23.3 498.04-23.05 498.44-22.8 498.44-22.1L498.44-22.1Q498.44-21.3 497.69-18.5L497.69-18.5Q497.19-16.5 496.89-15 496.59-13.5 496.39-11.3L496.39-11.3Q498.04-15.6 500.09-18.3 502.14-21 504.11-22.15 506.09-23.3 507.74-23.3L507.74-23.3Q510.99-23.3 510.99-20.05L510.99-20.05Q510.99-18.1 509.89-13L509.89-13Q508.94-8.65 508.94-7.25L508.94-7.25Q508.94-5.25 510.39-5.25L510.39-5.25Q511.39-5.25 512.76-6.48 514.14-7.7 516.44-10.45L516.44-10.45Q517.04-11.15 517.79-11.15L517.79-11.15Q518.44-11.15 518.81-10.55 519.19-9.95 519.19-8.9L519.19-8.9Q519.19-6.9 518.24-5.8L518.24-5.8Q516.09-3.15 513.61-1.45 511.14 0.25 507.99 0.25L507.99 0.25Q505.44 0.25 504.14-1.23 502.84-2.7 502.84-5.5L502.84-5.5Q502.84-6.9 503.54-10.5L503.54-10.5Q504.19-13.65 504.19-14.85L504.19-14.85Q504.19-15.65 503.64-15.65L503.64-15.65Q502.99-15.65 501.81-13.98 500.64-12.3 499.41-9.55 498.19-6.8 497.44-3.75L497.44-3.75Q496.89-1.4 496.16-0.58 495.44 0.25 493.89 0.25L493.89 0.25ZM549.55-11.15Q550.2-11.15 550.58-10.55 550.95-9.95 550.95-8.9L550.95-8.9Q550.95-7.05 550-5.8L550-5.8Q547.65-2.75 544.18-1 540.7 0.75 536.35 0.75L536.35 0.75Q532.95 0.75 530.45-0.28 527.95-1.3 526.63-3.08 525.3-4.85 525.3-7.05L525.3-7.05Q525.3-10.35 527.95-12.9 530.6-15.45 535.55-17.8L535.55-17.8 527.35-17.6Q526.25-17.55 525.68-18.38 525.1-19.2 525.1-20.35L525.1-20.35Q525.1-21.55 525.68-22.48 526.25-23.4 527.25-23.4L527.25-23.4Q529.55-23.4 533.4-23.05L533.4-23.05Q534.2-23 536.33-22.85 538.45-22.7 539.9-22.7L539.9-22.7Q540.4-22.7 541.8-23.1L541.8-23.1Q542.05-23.15 542.78-23.35 543.5-23.55 544-23.55L544-23.55Q544.8-23.55 545.33-22.85 545.85-22.15 545.85-20.7L545.85-20.7Q545.85-19.1 545.1-18.2 544.35-17.3 542.75-16.6L542.75-16.6Q538.2-14.65 535.2-12.43 532.2-10.2 532.2-8L532.2-8Q532.2-6.6 533.5-5.7 534.8-4.8 537.35-4.8L537.35-4.8Q540.15-4.8 543.03-6.2 545.9-7.6 548.2-10.45L548.2-10.45Q548.8-11.15 549.55-11.15L549.55-11.15ZM562.97 0.25Q559.87 0.25 558.02-2 556.17-4.25 556.17-7.9L556.17-7.9Q556.17-11.9 558.02-15.48 559.87-19.05 562.94-21.23 566.02-23.4 569.47-23.4L569.47-23.4Q570.57-23.4 570.94-22.98 571.32-22.55 571.57-21.45L571.57-21.45Q572.62-21.65 573.77-21.65L573.77-21.65Q576.22-21.65 576.22-19.9L576.22-19.9Q576.22-18.85 575.47-14.9L575.47-14.9Q574.32-9.15 574.32-6.9L574.32-6.9Q574.32-6.15 574.69-5.7 575.07-5.25 575.67-5.25L575.67-5.25Q576.62-5.25 577.97-6.48 579.32-7.7 581.62-10.45L581.62-10.45Q582.22-11.15 582.97-11.15L582.97-11.15Q583.62-11.15 583.99-10.55 584.37-9.95 584.37-8.9L584.37-8.9Q584.37-6.9 583.42-5.8L583.42-5.8Q581.37-3.25 579.07-1.5 576.77 0.25 574.62 0.25L574.62 0.25Q572.97 0.25 571.59-0.88 570.22-2 569.52-3.95L569.52-3.95Q566.92 0.25 562.97 0.25L562.97 0.25ZM564.77-4.8Q565.87-4.8 566.87-6.1 567.87-7.4 568.32-9.55L568.32-9.55 570.17-18.75Q568.07-18.7 566.29-17.18 564.52-15.65 563.47-13.15 562.42-10.65 562.42-7.85L562.42-7.85Q562.42-6.3 563.04-5.55 563.67-4.8 564.77-4.8L564.77-4.8ZM598.58 7.9Q597.48 7.9 596.83 7.4 596.18 6.9 596.18 5.8L596.18 5.8Q596.18 5.35 596.33 4.75L596.33 4.75Q596.88 2.45 597.16 0.5 597.43-1.45 597.43-3.85L597.43-3.85Q597.43-6.35 598.61-7.7 599.78-9.05 601.63-9.05L601.63-9.05Q603.43-9.05 604.36-8.08 605.28-7.1 605.28-5.45L605.28-5.45Q605.28-3.7 604.23-0.8 603.18 2.1 601.68 4.85L601.68 4.85Q600.68 6.7 600.11 7.3 599.53 7.9 598.58 7.9L598.58 7.9ZM663.76-11.15Q664.41-11.15 664.79-10.55 665.16-9.95 665.16-8.9L665.16-8.9Q665.16-6.9 664.21-5.8L664.21-5.8Q662.06-3.15 659.54-1.45 657.01 0.25 653.81 0.25L653.81 0.25Q649.41 0.25 647.29-3.75 645.16-7.75 645.16-14.1L645.16-14.1Q645.16-20.2 646.74-28 648.31-35.8 651.39-41.4 654.46-47 658.71-47L658.71-47Q661.11-47 662.49-44.78 663.86-42.55 663.86-38.4L663.86-38.4Q663.86-32.45 660.56-24.6 657.26-16.75 651.61-9.05L651.61-9.05Q651.96-7 652.76-6.13 653.56-5.25 654.86-5.25L654.86-5.25Q656.91-5.25 658.46-6.43 660.01-7.6 662.41-10.45L662.41-10.45Q663.01-11.15 663.76-11.15L663.76-11.15ZM657.61-42.05Q656.46-42.05 655.01-37.9 653.56-33.75 652.46-27.6 651.36-21.45 651.26-15.8L651.26-15.8Q654.81-21.65 656.91-27.53 659.01-33.4 659.01-38.25L659.01-38.25Q659.01-42.05 657.61-42.05L657.61-42.05ZM690.53-11.15Q691.18-11.15 691.55-10.55 691.93-9.95 691.93-8.9L691.93-8.9Q691.93-6.9 690.98-5.8L690.98-5.8Q688.83-3.15 686.3-1.45 683.78 0.25 680.58 0.25L680.58 0.25Q676.18 0.25 674.05-3.75 671.93-7.75 671.93-14.1L671.93-14.1Q671.93-20.2 673.5-28 675.08-35.8 678.15-41.4 681.23-47 685.48-47L685.48-47Q687.88-47 689.25-44.78 690.63-42.55 690.63-38.4L690.63-38.4Q690.63-32.45 687.33-24.6 684.03-16.75 678.38-9.05L678.38-9.05Q678.73-7 679.53-6.13 680.33-5.25 681.63-5.25L681.63-5.25Q683.68-5.25 685.23-6.43 686.78-7.6 689.18-10.45L689.18-10.45Q689.78-11.15 690.53-11.15L690.53-11.15ZM684.38-42.05Q683.23-42.05 681.78-37.9 680.33-33.75 679.23-27.6 678.13-21.45 678.03-15.8L678.03-15.8Q681.58-21.65 683.68-27.53 685.78-33.4 685.78-38.25L685.78-38.25Q685.78-42.05 684.38-42.05L684.38-42.05ZM720.64-11.15Q721.29-11.15 721.67-10.55 722.04-9.95 722.04-8.9L722.04-8.9Q722.04-6.9 721.09-5.8L721.09-5.8Q719.24-3.55 715.87-1.65 712.49 0.25 708.64 0.25L708.64 0.25Q703.39 0.25 700.49-2.6 697.59-5.45 697.59-10.4L697.59-10.4Q697.59-13.85 699.04-16.82 700.49-19.8 703.07-21.55 705.64-23.3 708.89-23.3L708.89-23.3Q711.79-23.3 713.54-21.58 715.29-19.85 715.29-16.9L715.29-16.9Q715.29-13.45 712.82-10.98 710.34-8.5 704.44-7.05L704.44-7.05Q705.69-4.75 709.19-4.75L709.19-4.75Q711.44-4.75 714.32-6.33 717.19-7.9 719.29-10.45L719.29-10.45Q719.89-11.15 720.64-11.15L720.64-11.15ZM708.04-18.4Q706.19-18.4 704.92-16.25 703.64-14.1 703.64-11.05L703.64-11.05 703.64-10.95Q706.59-11.65 708.29-13.05 709.99-14.45 709.99-16.3L709.99-16.3Q709.99-17.25 709.47-17.82 708.94-18.4 708.04-18.4L708.04-18.4ZM753.81-11.05Q754.46-11.05 754.83-10.43 755.21-9.8 755.21-8.85L755.21-8.85Q755.21-7.7 754.86-7.05 754.51-6.4 753.76-5.9L753.76-5.9Q749.46-3 747.46-1.6L747.46-1.6 744.26 0.55Q742.36 10.9 739.28 16.82 736.21 22.75 731.46 22.75L731.46 22.75Q728.91 22.75 727.31 21.18 725.71 19.6 725.71 17.05L725.71 17.05Q725.71 13.5 728.51 9.43 731.31 5.35 739.01-0.6L739.01-0.6 739.31-2.55Q738.46-1.2 737.08-0.48 735.71 0.25 734.36 0.25L734.36 0.25Q731.26 0.25 729.41-2 727.56-4.25 727.56-7.9L727.56-7.9Q727.56-11.9 729.41-15.48 731.26-19.05 734.33-21.23 737.41-23.4 740.86-23.4L740.86-23.4Q741.96-23.4 742.33-22.98 742.71-22.55 742.96-21.45L742.96-21.45Q743.91-21.65 745.16-21.65L745.16-21.65Q746.41-21.65 746.93-21.28 747.46-20.9 747.46-19.8L747.46-19.8Q747.46-19.2 747.41-18.85L747.41-18.85Q747.21-17.3 746.16-11L746.16-11Q745.96-9.8 745.73-8.38 745.51-6.95 745.26-5.35L745.26-5.35Q749.11-8.35 752.66-10.65L752.66-10.65Q753.31-11.05 753.81-11.05L753.81-11.05ZM736.16-4.8Q737.31-4.8 738.36-6.2 739.41-7.6 739.86-10.2L739.86-10.2 741.46-18.75Q739.41-18.7 737.66-17.18 735.91-15.65 734.86-13.15 733.81-10.65 733.81-7.85L733.81-7.85Q733.81-6.3 734.43-5.55 735.06-4.8 736.16-4.8L736.16-4.8ZM732.01 17.9Q733.26 17.9 734.83 14.9 736.41 11.9 737.86 5.35L737.86 5.35Q734.01 8.65 732.31 11.3 730.61 13.95 730.61 15.95L730.61 15.95Q730.61 16.8 730.93 17.35 731.26 17.9 732.01 17.9L732.01 17.9ZM768.27 0.25Q765.17 0.25 763.32-2 761.47-4.25 761.47-7.9L761.47-7.9Q761.47-11.9 763.32-15.48 765.17-19.05 768.25-21.23 771.32-23.4 774.77-23.4L774.77-23.4Q775.87-23.4 776.25-22.98 776.62-22.55 776.87-21.45L776.87-21.45Q777.92-21.65 779.07-21.65L779.07-21.65Q781.52-21.65 781.52-19.9L781.52-19.9Q781.52-18.85 780.77-14.9L780.77-14.9Q779.62-9.15 779.62-6.9L779.62-6.9Q779.62-6.15 780-5.7 780.37-5.25 780.97-5.25L780.97-5.25Q781.92-5.25 783.27-6.48 784.62-7.7 786.92-10.45L786.92-10.45Q787.52-11.15 788.27-11.15L788.27-11.15Q788.92-11.15 789.3-10.55 789.67-9.95 789.67-8.9L789.67-8.9Q789.67-6.9 788.72-5.8L788.72-5.8Q786.67-3.25 784.37-1.5 782.07 0.25 779.92 0.25L779.92 0.25Q778.27 0.25 776.9-0.88 775.52-2 774.82-3.95L774.82-3.95Q772.22 0.25 768.27 0.25L768.27 0.25ZM770.07-4.8Q771.17-4.8 772.17-6.1 773.17-7.4 773.62-9.55L773.62-9.55 775.47-18.75Q773.37-18.7 771.6-17.18 769.82-15.65 768.77-13.15 767.72-10.65 767.72-7.85L767.72-7.85Q767.72-6.3 768.35-5.55 768.97-4.8 770.07-4.8L770.07-4.8ZM829.35 0.25Q824.45 0.25 821.73-2.53 819-5.3 819-9.85L819-9.85Q819-13.9 820.6-16.95 822.2-20 824.75-21.65 827.3-23.3 830.1-23.3L830.1-23.3Q832.85-23.3 834.38-21.68 835.9-20.05 835.9-17.5L835.9-17.5Q835.9-15.4 834.98-13.95 834.05-12.5 832.55-12.5L832.55-12.5Q831.6-12.5 831.03-12.95 830.45-13.4 830.45-14.2L830.45-14.2Q830.45-14.55 830.55-15 830.65-15.45 830.7-15.65L830.7-15.65Q830.95-16.4 830.95-17.05L830.95-17.05Q830.95-17.7 830.63-18.05 830.3-18.4 829.7-18.4L829.7-18.4Q828.55-18.4 827.55-17.38 826.55-16.35 825.95-14.6 825.35-12.85 825.35-10.75L825.35-10.75Q825.35-4.95 830.4-4.95L830.4-4.95Q832.45-4.95 834.83-6.33 837.2-7.7 839.5-10.45L839.5-10.45Q840.1-11.15 840.85-11.15L840.85-11.15Q841.5-11.15 841.88-10.55 842.25-9.95 842.25-8.9L842.25-8.9Q842.25-7 841.3-5.8L841.3-5.8Q838.95-2.9 835.68-1.33 832.4 0.25 829.35 0.25L829.35 0.25ZM874.17-15.35Q874.82-15.35 875.17-14.7 875.52-14.05 875.52-13.05L875.52-13.05Q875.52-10.65 874.07-10.2L874.07-10.2Q871.07-9.15 867.47-9L867.47-9Q866.52-4.8 863.72-2.27 860.92 0.25 857.37 0.25L857.37 0.25Q854.37 0.25 852.24-1.2 850.12-2.65 849.02-5.05 847.92-7.45 847.92-10.25L847.92-10.25Q847.92-14.05 849.37-17.03 850.82-20 853.37-21.68 855.92-23.35 859.02-23.35L859.02-23.35Q862.82-23.35 865.14-20.73 867.47-18.1 867.87-14.25L867.87-14.25Q870.22-14.4 873.47-15.25L873.47-15.25Q873.87-15.35 874.17-15.35L874.17-15.35ZM857.77-5.05Q859.37-5.05 860.54-6.35 861.72-7.65 862.12-10.1L862.12-10.1Q860.57-11.15 859.74-12.85 858.92-14.55 858.92-16.45L858.92-16.45Q858.92-17.25 859.07-18.05L859.07-18.05 858.82-18.05Q856.82-18.05 855.49-16.13 854.17-14.2 854.17-10.7L854.17-10.7Q854.17-7.95 855.24-6.5 856.32-5.05 857.77-5.05L857.77-5.05ZM885.23 0.25Q883.33 0.25 882.56-1.75 881.78-3.75 881.78-8.15L881.78-8.15Q881.78-14.65 883.63-20.5L883.63-20.5Q884.08-21.95 885.11-22.63 886.13-23.3 887.98-23.3L887.98-23.3Q888.98-23.3 889.38-23.05 889.78-22.8 889.78-22.1L889.78-22.1Q889.78-21.3 889.03-18.5L889.03-18.5Q888.53-16.5 888.23-15 887.93-13.5 887.73-11.3L887.73-11.3Q889.38-15.6 891.43-18.3 893.48-21 895.46-22.15 897.43-23.3 899.08-23.3L899.08-23.3Q902.33-23.3 902.33-20.05L902.33-20.05Q902.33-18.1 901.23-13L901.23-13Q900.28-8.65 900.28-7.25L900.28-7.25Q900.28-5.25 901.73-5.25L901.73-5.25Q902.73-5.25 904.11-6.48 905.48-7.7 907.78-10.45L907.78-10.45Q908.38-11.15 909.13-11.15L909.13-11.15Q909.78-11.15 910.16-10.55 910.53-9.95 910.53-8.9L910.53-8.9Q910.53-6.9 909.58-5.8L909.58-5.8Q907.43-3.15 904.96-1.45 902.48 0.25 899.33 0.25L899.33 0.25Q896.78 0.25 895.48-1.23 894.18-2.7 894.18-5.5L894.18-5.5Q894.18-6.9 894.88-10.5L894.88-10.5Q895.53-13.65 895.53-14.85L895.53-14.85Q895.53-15.65 894.98-15.65L894.98-15.65Q894.33-15.65 893.16-13.98 891.98-12.3 890.76-9.55 889.53-6.8 888.78-3.75L888.78-3.75Q888.23-1.4 887.51-0.58 886.78 0.25 885.23 0.25L885.23 0.25ZM949.96 1.35Q947.36 1.35 945.99 0.15 944.61-1.05 944.61-2.55L944.61-2.55Q944.61-3.85 945.56-4.8 946.51-5.75 948.36-5.75L948.36-5.75Q949.01-5.75 949.89-5.63 950.76-5.5 951.21-5.45L951.21-5.45Q951.16-6.75 950.64-7.9 950.11-9.05 949.31-10.13 948.51-11.2 947.81-12L947.81-12Q946.26-9.05 944.74-7.1 943.21-5.15 941.41-3.4L941.41-3.4Q940.51-2.5 939.51-2.5L939.51-2.5Q938.71-2.5 938.21-3.08 937.71-3.65 937.71-4.5L937.71-4.5Q937.71-5.5 938.41-6.35L938.41-6.35 939.06-7.15Q941.81-10.55 943.21-12.75L943.21-12.75Q944.06-14.2 945.21-16.63 946.36-19.05 947.46-21.65L947.46-21.65Q948.41-23.85 951.41-23.85L951.41-23.85Q952.81-23.85 953.36-23.6 953.91-23.35 953.91-22.8L953.91-22.8Q953.91-22.5 953.71-21.85 953.51-21.2 953.16-20.55L953.16-20.55Q952.26-18.75 952.26-17.5L952.26-17.5Q952.26-16.75 952.79-15.85 953.31-14.95 954.41-13.6L954.41-13.6Q956.01-11.5 956.84-10.03 957.66-8.55 957.66-6.8L957.66-6.8Q957.66-6.3 957.56-5.4L957.56-5.4Q960.01-6.35 963.31-10.45L963.31-10.45Q963.91-11.15 964.66-11.15L964.66-11.15Q965.31-11.15 965.69-10.55 966.06-9.95 966.06-8.9L966.06-8.9Q966.06-7 965.11-5.8L965.11-5.8Q962.61-2.7 960.34-1.58 958.06-0.45 954.71-0.35L954.71-0.35Q952.71 1.35 949.96 1.35L949.96 1.35ZM978.63 0.25Q975.53 0.25 973.68-2 971.83-4.25 971.83-7.9L971.83-7.9Q971.83-11.9 973.68-15.48 975.53-19.05 978.6-21.23 981.68-23.4 985.13-23.4L985.13-23.4Q986.23-23.4 986.6-22.98 986.98-22.55 987.23-21.45L987.23-21.45Q988.28-21.65 989.43-21.65L989.43-21.65Q991.88-21.65 991.88-19.9L991.88-19.9Q991.88-18.85 991.13-14.9L991.13-14.9Q989.98-9.15 989.98-6.9L989.98-6.9Q989.98-6.15 990.35-5.7 990.73-5.25 991.33-5.25L991.33-5.25Q992.28-5.25 993.63-6.48 994.98-7.7 997.28-10.45L997.28-10.45Q997.88-11.15 998.63-11.15L998.63-11.15Q999.28-11.15 999.65-10.55 1000.03-9.95 1000.03-8.9L1000.03-8.9Q1000.03-6.9 999.08-5.8L999.08-5.8Q997.03-3.25 994.73-1.5 992.43 0.25 990.28 0.25L990.28 0.25Q988.63 0.25 987.25-0.88 985.88-2 985.18-3.95L985.18-3.95Q982.58 0.25 978.63 0.25L978.63 0.25ZM980.43-4.8Q981.53-4.8 982.53-6.1 983.53-7.4 983.98-9.55L983.98-9.55 985.83-18.75Q983.73-18.7 981.95-17.18 980.18-15.65 979.13-13.15 978.08-10.65 978.08-7.85L978.08-7.85Q978.08-6.3 978.7-5.55 979.33-4.8 980.43-4.8L980.43-4.8ZM1028.74-11.15Q1029.39-11.15 1029.77-10.55 1030.14-9.95 1030.14-8.9L1030.14-8.9Q1030.14-6.9 1029.19-5.8L1029.19-5.8Q1027.04-3.15 1024.49-1.45 1021.94 0.25 1018.64 0.25L1018.64 0.25Q1008.44 0.25 1008.44-14.1L1008.44-14.1Q1008.44-16.3 1008.59-18.55L1008.59-18.55 1006.64-18.55Q1005.14-18.55 1004.62-19.1 1004.09-19.65 1004.09-20.85L1004.09-20.85Q1004.09-23.65 1006.34-23.65L1006.34-23.65 1009.19-23.65Q1010.04-29.15 1011.79-33.7 1013.54-38.25 1016.02-40.95 1018.49-43.65 1021.34-43.65L1021.34-43.65Q1023.44-43.65 1024.64-41.8 1025.84-39.95 1025.84-37.15L1025.84-37.15Q1025.84-29.4 1019.34-23.65L1019.34-23.65 1024.94-23.65Q1025.74-23.65 1026.09-23.3 1026.44-22.95 1026.44-22L1026.44-22Q1026.44-18.55 1020.79-18.55L1020.79-18.55 1014.69-18.55Q1014.59-16.05 1014.59-14.65L1014.59-14.65Q1014.59-9.45 1015.82-7.35 1017.04-5.25 1019.69-5.25L1019.69-5.25Q1021.84-5.25 1023.49-6.55 1025.14-7.85 1027.39-10.45L1027.39-10.45Q1027.99-11.15 1028.74-11.15L1028.74-11.15ZM1019.99-38.85Q1019.24-38.85 1018.32-36.98 1017.39-35.1 1016.57-31.78 1015.74-28.45 1015.19-24.4L1015.19-24.4Q1018.14-26.95 1019.62-30.13 1021.09-33.3 1021.09-35.9L1021.09-35.9Q1021.09-38.85 1019.99-38.85L1019.99-38.85ZM1043.11-26.6Q1041.01-26.6 1039.96-27.58 1038.91-28.55 1038.91-30.3L1038.91-30.3Q1038.91-32.05 1040.28-33.23 1041.66-34.4 1043.71-34.4L1043.71-34.4Q1045.56-34.4 1046.71-33.5 1047.86-32.6 1047.86-30.95L1047.86-30.95Q1047.86-28.95 1046.56-27.78 1045.26-26.6 1043.11-26.6L1043.11-26.6ZM1042.71 0.25Q1039.46 0.25 1037.98-2.05 1036.51-4.35 1036.51-8.15L1036.51-8.15Q1036.51-10.4 1037.08-13.93 1037.66-17.45 1038.56-20.5L1038.56-20.5Q1039.01-22.1 1039.76-22.7 1040.51-23.3 1042.16-23.3L1042.16-23.3Q1044.71-23.3 1044.71-21.6L1044.71-21.6Q1044.71-20.35 1043.76-15.8L1043.76-15.8Q1042.56-10.3 1042.56-8.35L1042.56-8.35Q1042.56-6.85 1042.96-6.05 1043.36-5.25 1044.31-5.25L1044.31-5.25Q1045.21-5.25 1046.56-6.5 1047.91-7.75 1050.16-10.45L1050.16-10.45Q1050.76-11.15 1051.51-11.15L1051.51-11.15Q1052.16-11.15 1052.53-10.55 1052.91-9.95 1052.91-8.9L1052.91-8.9Q1052.91-6.9 1051.96-5.8L1051.96-5.8Q1047.01 0.25 1042.71 0.25L1042.71 0.25ZM1068.62 1.35Q1066.02 1.35 1064.65 0.15 1063.27-1.05 1063.27-2.55L1063.27-2.55Q1063.27-3.85 1064.22-4.8 1065.17-5.75 1067.02-5.75L1067.02-5.75Q1067.67-5.75 1068.55-5.63 1069.42-5.5 1069.87-5.45L1069.87-5.45Q1069.82-6.75 1069.3-7.9 1068.77-9.05 1067.97-10.13 1067.17-11.2 1066.47-12L1066.47-12Q1064.92-9.05 1063.4-7.1 1061.87-5.15 1060.07-3.4L1060.07-3.4Q1059.17-2.5 1058.17-2.5L1058.17-2.5Q1057.37-2.5 1056.87-3.08 1056.37-3.65 1056.37-4.5L1056.37-4.5Q1056.37-5.5 1057.07-6.35L1057.07-6.35 1057.72-7.15Q1060.47-10.55 1061.87-12.75L1061.87-12.75Q1062.72-14.2 1063.87-16.63 1065.02-19.05 1066.12-21.65L1066.12-21.65Q1067.07-23.85 1070.07-23.85L1070.07-23.85Q1071.47-23.85 1072.02-23.6 1072.57-23.35 1072.57-22.8L1072.57-22.8Q1072.57-22.5 1072.37-21.85 1072.17-21.2 1071.82-20.55L1071.82-20.55Q1070.92-18.75 1070.92-17.5L1070.92-17.5Q1070.92-16.75 1071.45-15.85 1071.97-14.95 1073.07-13.6L1073.07-13.6Q1074.67-11.5 1075.5-10.03 1076.32-8.55 1076.32-6.8L1076.32-6.8Q1076.32-6.3 1076.22-5.4L1076.22-5.4Q1078.67-6.35 1081.97-10.45L1081.97-10.45Q1082.57-11.15 1083.32-11.15L1083.32-11.15Q1083.97-11.15 1084.35-10.55 1084.72-9.95 1084.72-8.9L1084.72-8.9Q1084.72-7 1083.77-5.8L1083.77-5.8Q1081.27-2.7 1079-1.58 1076.72-0.45 1073.37-0.35L1073.37-0.35Q1071.37 1.35 1068.62 1.35L1068.62 1.35ZM1110.58-14Q1111.98-14 1111.98-11.9L1111.98-11.9Q1111.98-7.95 1105.78-7.95L1105.78-7.95Q1104.58-7.95 1102.33-8.4L1102.33-8.4Q1102.98-5.3 1103.41-1.53 1103.83 2.25 1103.83 4.7L1103.83 4.7Q1103.83 10.1 1102.08 12.95 1100.33 15.8 1097.48 15.8L1097.48 15.8Q1093.88 15.8 1092.36 10.7 1090.83 5.6 1090.83-4.7L1090.83-4.7Q1090.83-14.3 1092.91-24.18 1094.98-34.05 1098.61-40.53 1102.23-47 1106.58-47L1106.58-47Q1108.93-47 1110.26-44.9 1111.58-42.8 1111.58-39.25L1111.58-39.25Q1111.58-27.5 1097.53-13.65L1097.53-13.65Q1097.03-8.75 1097.03-5.05L1097.03-5.05Q1097.03 0.1 1097.38 5.53 1097.73 10.95 1098.53 10.95L1098.53 10.95Q1100.03 10.95 1100.03 5.75L1100.03 5.75Q1100.03 1.85 1099.51-1.8 1098.98-5.45 1098.08-9.5L1098.08-9.5Q1098.03-10.15 1098.51-11.15 1098.98-12.15 1099.68-12.9 1100.38-13.65 1100.93-13.65L1100.93-13.65Q1101.93-13.65 1103.33-13.55L1103.33-13.55Q1103.78-13.5 1104.38-13.5L1104.38-13.5Q1106.38-13.5 1108.83-13.85L1108.83-13.85Q1109.23-13.9 1109.68-13.95 1110.13-14 1110.58-14L1110.58-14ZM1105.53-42.05Q1104.63-42.05 1103.31-39 1101.98-35.95 1100.68-30.93 1099.38-25.9 1098.43-20.3L1098.43-20.3Q1102.43-24.85 1104.58-29.78 1106.73-34.7 1106.78-39L1106.78-39Q1106.78-42.05 1105.53-42.05L1105.53-42.05ZM1125.05 0.25Q1121.95 0.25 1120.1-2 1118.25-4.25 1118.25-7.9L1118.25-7.9Q1118.25-11.9 1120.1-15.48 1121.95-19.05 1125.02-21.23 1128.1-23.4 1131.55-23.4L1131.55-23.4Q1132.65-23.4 1133.02-22.98 1133.4-22.55 1133.65-21.45L1133.65-21.45Q1134.7-21.65 1135.85-21.65L1135.85-21.65Q1138.3-21.65 1138.3-19.9L1138.3-19.9Q1138.3-18.85 1137.55-14.9L1137.55-14.9Q1136.4-9.15 1136.4-6.9L1136.4-6.9Q1136.4-6.15 1136.77-5.7 1137.15-5.25 1137.75-5.25L1137.75-5.25Q1138.7-5.25 1140.05-6.48 1141.4-7.7 1143.7-10.45L1143.7-10.45Q1144.3-11.15 1145.05-11.15L1145.05-11.15Q1145.7-11.15 1146.07-10.55 1146.45-9.95 1146.45-8.9L1146.45-8.9Q1146.45-6.9 1145.5-5.8L1145.5-5.8Q1143.45-3.25 1141.15-1.5 1138.85 0.25 1136.7 0.25L1136.7 0.25Q1135.05 0.25 1133.67-0.88 1132.3-2 1131.6-3.95L1131.6-3.95Q1129 0.25 1125.05 0.25L1125.05 0.25ZM1126.85-4.8Q1127.95-4.8 1128.95-6.1 1129.95-7.4 1130.4-9.55L1130.4-9.55 1132.25-18.75Q1130.15-18.7 1128.37-17.18 1126.6-15.65 1125.55-13.15 1124.5-10.65 1124.5-7.85L1124.5-7.85Q1124.5-6.3 1125.12-5.55 1125.75-4.8 1126.85-4.8L1126.85-4.8ZM1162.41 0.25Q1157.51 0.25 1154.79-2.53 1152.06-5.3 1152.06-9.85L1152.06-9.85Q1152.06-13.9 1153.66-16.95 1155.26-20 1157.81-21.65 1160.36-23.3 1163.16-23.3L1163.16-23.3Q1165.91-23.3 1167.44-21.68 1168.96-20.05 1168.96-17.5L1168.96-17.5Q1168.96-15.4 1168.04-13.95 1167.11-12.5 1165.61-12.5L1165.61-12.5Q1164.66-12.5 1164.09-12.95 1163.51-13.4 1163.51-14.2L1163.51-14.2Q1163.51-14.55 1163.61-15 1163.71-15.45 1163.76-15.65L1163.76-15.65Q1164.01-16.4 1164.01-17.05L1164.01-17.05Q1164.01-17.7 1163.69-18.05 1163.36-18.4 1162.76-18.4L1162.76-18.4Q1161.61-18.4 1160.61-17.38 1159.61-16.35 1159.01-14.6 1158.41-12.85 1158.41-10.75L1158.41-10.75Q1158.41-4.95 1163.46-4.95L1163.46-4.95Q1165.51-4.95 1167.89-6.33 1170.26-7.7 1172.56-10.45L1172.56-10.45Q1173.16-11.15 1173.91-11.15L1173.91-11.15Q1174.56-11.15 1174.94-10.55 1175.31-9.95 1175.31-8.9L1175.31-8.9Q1175.31-7 1174.36-5.8L1174.36-5.8Q1172.01-2.9 1168.74-1.33 1165.46 0.25 1162.41 0.25L1162.41 0.25ZM1191.28 0.25Q1186.38 0.25 1183.65-2.53 1180.93-5.3 1180.93-9.85L1180.93-9.85Q1180.93-13.9 1182.53-16.95 1184.13-20 1186.68-21.65 1189.23-23.3 1192.03-23.3L1192.03-23.3Q1194.78-23.3 1196.3-21.68 1197.83-20.05 1197.83-17.5L1197.83-17.5Q1197.83-15.4 1196.9-13.95 1195.98-12.5 1194.48-12.5L1194.48-12.5Q1193.53-12.5 1192.95-12.95 1192.38-13.4 1192.38-14.2L1192.38-14.2Q1192.38-14.55 1192.48-15 1192.58-15.45 1192.63-15.65L1192.63-15.65Q1192.88-16.4 1192.88-17.05L1192.88-17.05Q1192.88-17.7 1192.55-18.05 1192.23-18.4 1191.63-18.4L1191.63-18.4Q1190.48-18.4 1189.48-17.38 1188.48-16.35 1187.88-14.6 1187.28-12.85 1187.28-10.75L1187.28-10.75Q1187.28-4.95 1192.33-4.95L1192.33-4.95Q1194.38-4.95 1196.75-6.33 1199.13-7.7 1201.43-10.45L1201.43-10.45Q1202.03-11.15 1202.78-11.15L1202.78-11.15Q1203.43-11.15 1203.8-10.55 1204.18-9.95 1204.18-8.9L1204.18-8.9Q1204.18-7 1203.23-5.8L1203.23-5.8Q1200.88-2.9 1197.6-1.33 1194.33 0.25 1191.28 0.25L1191.28 0.25ZM1217.14-26.6Q1215.04-26.6 1213.99-27.58 1212.94-28.55 1212.94-30.3L1212.94-30.3Q1212.94-32.05 1214.32-33.23 1215.69-34.4 1217.74-34.4L1217.74-34.4Q1219.59-34.4 1220.74-33.5 1221.89-32.6 1221.89-30.95L1221.89-30.95Q1221.89-28.95 1220.59-27.78 1219.29-26.6 1217.14-26.6L1217.14-26.6ZM1216.74 0.25Q1213.49 0.25 1212.02-2.05 1210.54-4.35 1210.54-8.15L1210.54-8.15Q1210.54-10.4 1211.12-13.93 1211.69-17.45 1212.59-20.5L1212.59-20.5Q1213.04-22.1 1213.79-22.7 1214.54-23.3 1216.19-23.3L1216.19-23.3Q1218.74-23.3 1218.74-21.6L1218.74-21.6Q1218.74-20.35 1217.79-15.8L1217.79-15.8Q1216.59-10.3 1216.59-8.35L1216.59-8.35Q1216.59-6.85 1216.99-6.05 1217.39-5.25 1218.34-5.25L1218.34-5.25Q1219.24-5.25 1220.59-6.5 1221.94-7.75 1224.19-10.45L1224.19-10.45Q1224.79-11.15 1225.54-11.15L1225.54-11.15Q1226.19-11.15 1226.57-10.55 1226.94-9.95 1226.94-8.9L1226.94-8.9Q1226.94-6.9 1225.99-5.8L1225.99-5.8Q1221.04 0.25 1216.74 0.25L1216.74 0.25ZM1258.86-15.35Q1259.51-15.35 1259.86-14.7 1260.21-14.05 1260.21-13.05L1260.21-13.05Q1260.21-10.65 1258.76-10.2L1258.76-10.2Q1255.76-9.15 1252.16-9L1252.16-9Q1251.21-4.8 1248.41-2.27 1245.61 0.25 1242.06 0.25L1242.06 0.25Q1239.06 0.25 1236.93-1.2 1234.81-2.65 1233.71-5.05 1232.61-7.45 1232.61-10.25L1232.61-10.25Q1232.61-14.05 1234.06-17.03 1235.51-20 1238.06-21.68 1240.61-23.35 1243.71-23.35L1243.71-23.35Q1247.51-23.35 1249.83-20.73 1252.16-18.1 1252.56-14.25L1252.56-14.25Q1254.91-14.4 1258.16-15.25L1258.16-15.25Q1258.56-15.35 1258.86-15.35L1258.86-15.35ZM1242.46-5.05Q1244.06-5.05 1245.23-6.35 1246.41-7.65 1246.81-10.1L1246.81-10.1Q1245.26-11.15 1244.43-12.85 1243.61-14.55 1243.61-16.45L1243.61-16.45Q1243.61-17.25 1243.76-18.05L1243.76-18.05 1243.51-18.05Q1241.51-18.05 1240.18-16.13 1238.86-14.2 1238.86-10.7L1238.86-10.7Q1238.86-7.95 1239.93-6.5 1241.01-5.05 1242.46-5.05L1242.46-5.05ZM1269.92 0.25Q1268.02 0.25 1267.25-1.75 1266.47-3.75 1266.47-8.15L1266.47-8.15Q1266.47-14.65 1268.32-20.5L1268.32-20.5Q1268.77-21.95 1269.8-22.63 1270.82-23.3 1272.67-23.3L1272.67-23.3Q1273.67-23.3 1274.07-23.05 1274.47-22.8 1274.47-22.1L1274.47-22.1Q1274.47-21.3 1273.72-18.5L1273.72-18.5Q1273.22-16.5 1272.92-15 1272.62-13.5 1272.42-11.3L1272.42-11.3Q1274.07-15.6 1276.12-18.3 1278.17-21 1280.15-22.15 1282.12-23.3 1283.77-23.3L1283.77-23.3Q1287.02-23.3 1287.02-20.05L1287.02-20.05Q1287.02-18.1 1285.92-13L1285.92-13Q1284.97-8.65 1284.97-7.25L1284.97-7.25Q1284.97-5.25 1286.42-5.25L1286.42-5.25Q1287.42-5.25 1288.8-6.48 1290.17-7.7 1292.47-10.45L1292.47-10.45Q1293.07-11.15 1293.82-11.15L1293.82-11.15Q1294.47-11.15 1294.85-10.55 1295.22-9.95 1295.22-8.9L1295.22-8.9Q1295.22-6.9 1294.27-5.8L1294.27-5.8Q1292.12-3.15 1289.65-1.45 1287.17 0.25 1284.02 0.25L1284.02 0.25Q1281.47 0.25 1280.17-1.23 1278.87-2.7 1278.87-5.5L1278.87-5.5Q1278.87-6.9 1279.57-10.5L1279.57-10.5Q1280.22-13.65 1280.22-14.85L1280.22-14.85Q1280.22-15.65 1279.67-15.65L1279.67-15.65Q1279.02-15.65 1277.85-13.98 1276.67-12.3 1275.45-9.55 1274.22-6.8 1273.47-3.75L1273.47-3.75Q1272.92-1.4 1272.2-0.58 1271.47 0.25 1269.92 0.25L1269.92 0.25Z" opacity="1" transform="matrix(1,0,0,1,0,0)" fill="#1c4b82" class="slogan-text-1" data-fill-palette-color="secondary" id="text-1"></path></svg></g></svg></g></svg></g></svg></g><g transform="matrix(1,0,0,1,75.54432,0)"><svg viewBox="0 0 244.43135999999998 75.34863092030929" height="75.34863092030929" width="244.43135999999998"><g><svg xmlns="http://www.w3.org/2000/svg" xmlns:xlink="http://www.w3.org/1999/xlink" version="1.1" x="8" y="0" viewBox="6.0169997215271 2.262666940689087 86.96112060546875 28.68433380126953" enable-background="new 0 0 100 33.285" xml:space="preserve" height="75.34863092030929" width="228.43135999999998" class="icon-icon-0" data-fill-palette-color="accent" id="icon-0"><g fill="#1c4b82" data-fill-palette-color="accent"><path d="M12.013 2.303c-0.75 0-1.082 0.455-1.346 1.109l-4.51 11.44-0.14 0.87v5.59l0.02 4.3c-0.02 1.141 0.84 1.74 1.7 1.771h3.31c-0.11-0.44-0.17-0.891-0.17-1.36 0-0.02 0-0.04 0-0.06 0.03-2.99 2.46-5.41 5.47-5.41 3.02 0 5.46 2.45 5.47 5.46v0.02c0 0.471-0.06 0.92-0.17 1.351h28.16l12.949 0.012c-0.114-0.439-0.182-0.896-0.182-1.371 0.001-3.02 2.455-5.474 5.47-5.475 3.012 0.001 5.465 2.454 5.469 5.467-0.002 0.482-0.071 0.947-0.189 1.393l2.864 0.004c-0.11-0.439-0.171-0.909-0.171-1.39v-0.01c0-3.021 2.44-5.46 5.461-5.46 3.02 0 5.47 2.439 5.47 5.46v0.02c0 0.49-0.07 0.971-0.19 1.42h6.11l0.11-21.26c0.02-2.01-2.48-3.99-4.49-3.93M19.102 12.803c0 0.68-0.591 1.22-1.312 1.22h-7.052c-0.72 0-1.726-0.335-1.226-1.435l1.914-4.785c0.28-0.75 0.592-1.22 1.312-1.22h5.052c0.72 0 1.312 0.54 1.312 1.22V12.803zM34.582 12.919c0 0.711-0.587 1.276-1.301 1.276h-6.998c-0.714 0-1.302-0.565-1.302-1.276V7.687c0-0.712 0.587-1.277 1.302-1.277h6.998c0.714 0 1.301 0.565 1.301 1.277V12.919zM45.295 12.919c0 0.711-0.586 1.276-1.302 1.276h-6.998c-0.714 0-1.301-0.565-1.301-1.276V7.687c0-0.712 0.587-1.277 1.301-1.277h6.998c0.715 0 1.302 0.565 1.302 1.277V12.919zM56.009 12.919c0 0.711-0.587 1.276-1.303 1.276H47.71c-0.715 0-1.303-0.565-1.303-1.276V7.687c0-0.712 0.587-1.277 1.303-1.277h6.996c0.716 0 1.303 0.565 1.303 1.277V12.919zM66.722 12.919c0 0.711-0.588 1.276-1.302 1.276h-6.996c-0.717 0-1.303-0.565-1.303-1.276V7.687c0-0.712 0.586-1.277 1.303-1.277h6.996c0.714 0 1.302 0.565 1.302 1.277V12.919zM77.436 12.919c0 0.711-0.588 1.276-1.303 1.276h-6.997c-0.714 0-1.302-0.565-1.302-1.276V7.687c0-0.712 0.588-1.277 1.302-1.277h6.997c0.715 0 1.303 0.565 1.303 1.277V12.919zM88.148 12.919c0 0.711-0.587 1.276-1.303 1.276h-6.997c-0.715 0-1.301-0.565-1.301-1.276V7.687c0-0.712 0.586-1.277 1.301-1.277h6.997c0.716 0 1.303 0.565 1.303 1.277V12.919z" fill="#1c4b82" data-fill-palette-color="accent"></path><path d="M16.347 30.947L16.347 30.947c-0.002 0-0.007 0-0.009 0l0 0c-2.672-0.007-4.833-2.172-4.834-4.844l0 0c0-0.021 0-0.038 0-0.054l0 0c0.026-2.653 2.184-4.795 4.843-4.796l0 0c2.675 0.001 4.842 2.169 4.844 4.845l0 0c0 0.004 0 0.007 0 0.016l0 0C21.184 28.785 19.019 30.947 16.347 30.947L16.347 30.947 16.347 30.947zM16.341 27.769c0.002 0 0.003 0 0.007 0l0 0c0.916 0 1.662-0.745 1.664-1.657l0 0c0-0.006 0-0.009 0-0.015l0 0c-0.001-0.917-0.746-1.662-1.664-1.663l0 0c-0.918 0.001-1.663 0.745-1.663 1.663l0 0v0.041 0.001C14.702 27.041 15.438 27.767 16.341 27.769L16.341 27.769 16.341 27.769 16.341 27.769z" fill="#1c4b82" data-fill-palette-color="accent"></path><path d="M81.483 30.947L81.483 30.947c-0.004 0-0.007 0-0.01 0l0 0c-2.673-0.005-4.833-2.172-4.834-4.844l0 0c0-0.001 0-0.003 0-0.005l0 0 0 0c0.001-2.678 2.168-4.844 4.845-4.845l0 0c2.675 0.001 4.841 2.167 4.844 4.843l0 0 0 0v0.002c0 0.004 0 0.007 0 0.016l0 0C86.319 28.786 84.154 30.947 81.483 30.947L81.483 30.947 81.483 30.947zM81.477 27.767c0.002 0 0.005 0 0.007 0l0 0c0.915 0.002 1.663-0.743 1.663-1.655l0 0c0-0.006 0-0.009 0-0.015l0 0c0-0.917-0.745-1.662-1.662-1.665l0 0c-0.918 0.003-1.663 0.747-1.665 1.665l0 0v0.048C79.841 27.043 80.575 27.766 81.477 27.767L81.477 27.767 81.477 27.767 81.477 27.767z" fill="#1c4b82" data-fill-palette-color="accent"></path><path d="M68.046 30.947L68.046 30.947c-0.004 0-0.007 0-0.01 0l0 0c-2.673-0.005-4.833-2.172-4.834-4.844l0 0c0-0.001 0-0.003 0-0.005l0 0 0 0c0.001-2.678 2.168-4.844 4.845-4.845l0 0c2.675 0.001 4.841 2.167 4.844 4.843l0 0 0 0v0.002c0 0.004 0 0.007 0 0.016l0 0C72.882 28.786 70.717 30.947 68.046 30.947L68.046 30.947 68.046 30.947zM68.039 27.767c0.002 0 0.005 0 0.007 0l0 0c0.915 0.002 1.663-0.743 1.663-1.655l0 0c0-0.006 0-0.009 0-0.015l0 0c0-0.917-0.745-1.662-1.662-1.665l0 0c-0.918 0.003-1.663 0.747-1.665 1.665l0 0v0.048C66.403 27.043 67.138 27.766 68.039 27.767L68.039 27.767 68.039 27.767 68.039 27.767z" fill="#1c4b82" data-fill-palette-color="accent"></path></g></svg></g></svg></g><g><rect width="75.54432" height="3.1185248886259136" y="71.23010603168338" x="319.97568" fill="#1c4b82" data-fill-palette-color="accent"></rect><rect width="75.54432" height="3.1185248886259136" y="71.23010603168338" x="0" fill="#1c4b82" data-fill-palette-color="accent"></rect><rect width="75.54432" height="3.1185248886259136" y="64.99305625443155" x="319.97568" fill="#1c4b82" data-fill-palette-color="accent"></rect><rect width="75.54432" height="3.1185248886259136" y="64.99305625443155" x="0" fill="#1c4b82" data-fill-palette-color="accent"></rect></g></svg></g><defs></defs></svg><rect width="395.52" height="147.62758901663304" fill="none" stroke="none" visibility="hidden"></rect></g></svg></g></svg>