<svg xmlns="http://www.w3.org/2000/svg" version="1.1" xmlns:xlink="http://www.w3.org/1999/xlink" xmlns:svgjs="http://svgjs.dev/svgjs" width="1000" height="83" viewBox="0 0 1000 83"><g transform="matrix(1,0,0,1,-0.6060606060606233,0.6044625902634522)"><svg viewBox="0 0 396 33" data-background-color="#ffffff" preserveAspectRatio="xMidYMid meet" height="83" width="1000" xmlns="http://www.w3.org/2000/svg" xmlns:xlink="http://www.w3.org/1999/xlink"><g id="tight-bounds" transform="matrix(1,0,0,1,0.2400000000000091,-0.24032849974329906)"><svg viewBox="0 0 395.52 33.48065699948662" height="33.48065699948662" width="395.52"><g><svg viewBox="0 0 564.5683581475873 47.79055307418763" height="33.48065699948662" width="395.52"><g transform="matrix(1,0,0,1,0,6.604917248313921)"><svg viewBox="0 0 395.52 34.580718577559786" height="34.580718577559786" width="395.52"><g id="textblocktransform"><svg viewBox="0 0 395.52 34.580718577559786" height="34.580718577559786" width="395.52" id="textblock"><g><svg viewBox="0 0 395.52 34.580718577559786" height="34.580718577559786" width="395.52"><g transform="matrix(1,0,0,1,0,0)"><svg width="395.52" viewBox="2.15 -35.3 407.72 35.65" height="34.580718577559786" data-palette-color="#1c4b82"><path d="M2.15-17.45Q2.15-22.55 4.45-26.63 6.75-30.7 10.73-33 14.7-35.3 19.55-35.3L19.55-35.3Q25.25-35.3 29.5-32.55 33.75-29.8 35.7-24.75L35.7-24.75 30.25-24.75Q28.8-27.9 26.08-29.6 23.35-31.3 19.55-31.3L19.55-31.3Q15.9-31.3 13-29.6 10.1-27.9 8.45-24.78 6.8-21.65 6.8-17.45L6.8-17.45Q6.8-13.3 8.45-10.18 10.1-7.05 13-5.35 15.9-3.65 19.55-3.65L19.55-3.65Q23.35-3.65 26.08-5.33 28.8-7 30.25-10.15L30.25-10.15 35.7-10.15Q33.75-5.15 29.5-2.43 25.25 0.3 19.55 0.3L19.55 0.3Q14.7 0.3 10.73-1.98 6.75-4.25 4.45-8.3 2.15-12.35 2.15-17.45L2.15-17.45ZM58.25 0.35Q53.4 0.35 49.4-1.93 45.4-4.2 43.07-8.28 40.75-12.35 40.75-17.45L40.75-17.45Q40.75-22.55 43.07-26.63 45.4-30.7 49.4-32.98 53.4-35.25 58.25-35.25L58.25-35.25Q63.15-35.25 67.15-32.98 71.15-30.7 73.45-26.65 75.75-22.6 75.75-17.45L75.75-17.45Q75.75-12.3 73.45-8.25 71.15-4.2 67.15-1.93 63.15 0.35 58.25 0.35L58.25 0.35ZM58.25-3.6Q61.9-3.6 64.82-5.3 67.75-7 69.42-10.15 71.1-13.3 71.1-17.45L71.1-17.45Q71.1-21.65 69.42-24.78 67.75-27.9 64.85-29.6 61.95-31.3 58.25-31.3L58.25-31.3Q54.55-31.3 51.65-29.6 48.75-27.9 47.07-24.78 45.4-21.65 45.4-17.45L45.4-17.45Q45.4-13.3 47.07-10.15 48.75-7 51.67-5.3 54.6-3.6 58.25-3.6L58.25-3.6ZM86.3-34.85L86.3-3.7 98.5-3.7 98.5 0 81.75 0 81.75-34.85 86.3-34.85ZM119.14 0.35Q114.29 0.35 110.29-1.93 106.29-4.2 103.97-8.28 101.64-12.35 101.64-17.45L101.64-17.45Q101.64-22.55 103.97-26.63 106.29-30.7 110.29-32.98 114.29-35.25 119.14-35.25L119.14-35.25Q124.04-35.25 128.04-32.98 132.04-30.7 134.34-26.65 136.64-22.6 136.64-17.45L136.64-17.45Q136.64-12.3 134.34-8.25 132.04-4.2 128.04-1.93 124.04 0.35 119.14 0.35L119.14 0.35ZM119.14-3.6Q122.79-3.6 125.72-5.3 128.64-7 130.32-10.15 131.99-13.3 131.99-17.45L131.99-17.45Q131.99-21.65 130.32-24.78 128.64-27.9 125.74-29.6 122.84-31.3 119.14-31.3L119.14-31.3Q115.44-31.3 112.54-29.6 109.64-27.9 107.97-24.78 106.29-21.65 106.29-17.45L106.29-17.45Q106.29-13.3 107.97-10.15 109.64-7 112.57-5.3 115.49-3.6 119.14-3.6L119.14-3.6ZM173.14-34.6L177.99-34.6 177.99 0 173.44 0 173.44-25.8 161.94 0 158.74 0 147.19-25.85 147.19 0 142.64 0 142.64-34.6 147.54-34.6 160.34-6 173.14-34.6ZM203.14-17.95Q205.04-17.65 206.61-16.4 208.19-15.15 209.11-13.3 210.04-11.45 210.04-9.35L210.04-9.35Q210.04-6.7 208.69-4.58 207.34-2.45 204.76-1.23 202.19 0 198.69 0L198.69 0 185.69 0 185.69-34.85 198.19-34.85Q201.74-34.85 204.24-33.68 206.74-32.5 207.99-30.5 209.24-28.5 209.24-26L209.24-26Q209.24-22.9 207.56-20.88 205.89-18.85 203.14-17.95L203.14-17.95ZM190.24-31.1L190.24-19.8 197.89-19.8Q201.09-19.8 202.84-21.3 204.59-22.8 204.59-25.45L204.59-25.45Q204.59-28.1 202.84-29.6 201.09-31.1 197.79-31.1L197.79-31.1 190.24-31.1ZM198.29-3.75Q201.69-3.75 203.59-5.35 205.49-6.95 205.49-9.8L205.49-9.8Q205.49-12.7 203.49-14.38 201.49-16.05 198.14-16.05L198.14-16.05 190.24-16.05 190.24-3.75 198.29-3.75ZM216.34-34.85L220.89-34.85 220.89 0 216.34 0 216.34-34.85ZM252.03 0L249.23-7.75 234.03-7.75 231.23 0 226.43 0 239.03-34.65 244.28-34.65 256.83 0 252.03 0ZM235.33-11.45L247.93-11.45 241.63-29.05 235.33-11.45ZM286.13 0L280.68 0 272.38-14.25 266.88-14.25 266.88 0 262.33 0 262.33-34.85 273.58-34.85Q277.53-34.85 280.26-33.5 282.98-32.15 284.33-29.85 285.68-27.55 285.68-24.6L285.68-24.6Q285.68-21 283.61-18.25 281.53-15.5 277.38-14.6L277.38-14.6 286.13 0ZM266.88-31.1L266.88-17.9 273.58-17.9Q277.28-17.9 279.13-19.73 280.98-21.55 280.98-24.6L280.98-24.6Q280.98-27.7 279.16-29.4 277.33-31.1 273.58-31.1L273.58-31.1 266.88-31.1ZM292.63-34.85L297.18-34.85 297.18-12.8Q297.18-8.15 299.45-5.9 301.73-3.65 305.78-3.65L305.78-3.65Q309.78-3.65 312.05-5.9 314.33-8.15 314.33-12.8L314.33-12.8 314.33-34.85 318.88-34.85 318.88-12.85Q318.88-8.5 317.13-5.53 315.38-2.55 312.4-1.1 309.43 0.35 305.73 0.35L305.73 0.35Q302.03 0.35 299.05-1.1 296.08-2.55 294.35-5.53 292.63-8.5 292.63-12.85L292.63-12.85 292.63-34.85ZM324.33-34.85L347.93-34.85 347.93-31.15 338.43-31.15 338.43 0 333.88 0 333.88-31.15 324.33-31.15 324.33-34.85ZM376.92 0L374.12-7.75 358.92-7.75 356.12 0 351.32 0 363.92-34.65 369.17-34.65 381.72 0 376.92 0ZM360.22-11.45L372.82-11.45 366.52-29.05 360.22-11.45ZM398.27 0.35Q394.82 0.35 392.1-0.88 389.37-2.1 387.82-4.28 386.27-6.45 386.22-9.3L386.22-9.3 391.07-9.3Q391.32-6.85 393.1-5.18 394.87-3.5 398.27-3.5L398.27-3.5Q401.52-3.5 403.4-5.13 405.27-6.75 405.27-9.3L405.27-9.3Q405.27-11.3 404.17-12.55 403.07-13.8 401.42-14.45 399.77-15.1 396.97-15.85L396.97-15.85Q393.52-16.75 391.45-17.65 389.37-18.55 387.9-20.48 386.42-22.4 386.42-25.65L386.42-25.65Q386.42-28.5 387.87-30.7 389.32-32.9 391.95-34.1 394.57-35.3 397.97-35.3L397.97-35.3Q402.87-35.3 406-32.85 409.12-30.4 409.52-26.35L409.52-26.35 404.52-26.35Q404.27-28.35 402.42-29.88 400.57-31.4 397.52-31.4L397.52-31.4Q394.67-31.4 392.87-29.93 391.07-28.45 391.07-25.8L391.07-25.8Q391.07-23.9 392.15-22.7 393.22-21.5 394.8-20.88 396.37-20.25 399.22-19.45L399.22-19.45Q402.67-18.5 404.77-17.57 406.87-16.65 408.37-14.73 409.87-12.8 409.87-9.5L409.87-9.5Q409.87-6.95 408.52-4.7 407.17-2.45 404.52-1.05 401.87 0.35 398.27 0.35L398.27 0.35Z" opacity="1" transform="matrix(1,0,0,1,0,0)" fill="#1c4b82" class="wordmark-text-0" data-fill-palette-color="primary" id="text-0"></path></svg></g></svg></g></svg></g></svg></g><g transform="matrix(1,0,0,1,403.683677718916,0)"><svg viewBox="0 0 160.88468042867134 47.79055307418763" height="47.79055307418763" width="160.88468042867134"><g><svg xmlns="http://www.w3.org/2000/svg" xmlns:xlink="http://www.w3.org/1999/xlink" version="1.1" x="8" y="0" viewBox="6.017 2.2626700076167445 86.9611192363805 28.684329992383255" enable-background="new 0 0 100 33.285" xml:space="preserve" height="47.79055307418763" width="144.88468042867134" class="icon-icon-0" data-fill-palette-color="accent" id="icon-0"><g fill="#1c4b82" data-fill-palette-color="accent"><path d="M12.013 2.303c-0.75 0-1.082 0.455-1.346 1.109l-4.51 11.44-0.14 0.87v5.59l0.02 4.3c-0.02 1.141 0.84 1.74 1.7 1.771h3.31c-0.11-0.44-0.17-0.891-0.17-1.36 0-0.02 0-0.04 0-0.06 0.03-2.99 2.46-5.41 5.47-5.41 3.02 0 5.46 2.45 5.47 5.46v0.02c0 0.471-0.06 0.92-0.17 1.351h28.16l12.949 0.012c-0.114-0.439-0.182-0.896-0.182-1.371 0.001-3.02 2.455-5.474 5.47-5.475 3.012 0.001 5.465 2.454 5.469 5.467-0.002 0.482-0.071 0.947-0.189 1.393l2.864 0.004c-0.11-0.439-0.171-0.909-0.171-1.39v-0.01c0-3.021 2.44-5.46 5.461-5.46 3.02 0 5.47 2.439 5.47 5.46v0.02c0 0.49-0.07 0.971-0.19 1.42h6.11l0.11-21.26c0.02-2.01-2.48-3.99-4.49-3.93M19.102 12.803c0 0.68-0.591 1.22-1.312 1.22h-7.052c-0.72 0-1.726-0.335-1.226-1.435l1.914-4.785c0.28-0.75 0.592-1.22 1.312-1.22h5.052c0.72 0 1.312 0.54 1.312 1.22V12.803zM34.582 12.919c0 0.711-0.587 1.276-1.301 1.276h-6.998c-0.714 0-1.302-0.565-1.302-1.276V7.687c0-0.712 0.587-1.277 1.302-1.277h6.998c0.714 0 1.301 0.565 1.301 1.277V12.919zM45.295 12.919c0 0.711-0.586 1.276-1.302 1.276h-6.998c-0.714 0-1.301-0.565-1.301-1.276V7.687c0-0.712 0.587-1.277 1.301-1.277h6.998c0.715 0 1.302 0.565 1.302 1.277V12.919zM56.009 12.919c0 0.711-0.587 1.276-1.303 1.276H47.71c-0.715 0-1.303-0.565-1.303-1.276V7.687c0-0.712 0.587-1.277 1.303-1.277h6.996c0.716 0 1.303 0.565 1.303 1.277V12.919zM66.722 12.919c0 0.711-0.588 1.276-1.302 1.276h-6.996c-0.717 0-1.303-0.565-1.303-1.276V7.687c0-0.712 0.586-1.277 1.303-1.277h6.996c0.714 0 1.302 0.565 1.302 1.277V12.919zM77.436 12.919c0 0.711-0.588 1.276-1.303 1.276h-6.997c-0.714 0-1.302-0.565-1.302-1.276V7.687c0-0.712 0.588-1.277 1.302-1.277h6.997c0.715 0 1.303 0.565 1.303 1.277V12.919zM88.148 12.919c0 0.711-0.587 1.276-1.303 1.276h-6.997c-0.715 0-1.301-0.565-1.301-1.276V7.687c0-0.712 0.586-1.277 1.301-1.277h6.997c0.716 0 1.303 0.565 1.303 1.277V12.919z" fill="#1c4b82" data-fill-palette-color="accent"></path><path d="M16.347 30.947L16.347 30.947c-0.002 0-0.007 0-0.009 0l0 0c-2.672-0.007-4.833-2.172-4.834-4.844l0 0c0-0.021 0-0.038 0-0.054l0 0c0.026-2.653 2.184-4.795 4.843-4.796l0 0c2.675 0.001 4.842 2.169 4.844 4.845l0 0c0 0.004 0 0.007 0 0.016l0 0C21.184 28.785 19.019 30.947 16.347 30.947L16.347 30.947 16.347 30.947zM16.341 27.769c0.002 0 0.003 0 0.007 0l0 0c0.916 0 1.662-0.745 1.664-1.657l0 0c0-0.006 0-0.009 0-0.015l0 0c-0.001-0.917-0.746-1.662-1.664-1.663l0 0c-0.918 0.001-1.663 0.745-1.663 1.663l0 0v0.041 0.001C14.702 27.041 15.438 27.767 16.341 27.769L16.341 27.769 16.341 27.769 16.341 27.769z" fill="#1c4b82" data-fill-palette-color="accent"></path><path d="M81.483 30.947L81.483 30.947c-0.004 0-0.007 0-0.01 0l0 0c-2.673-0.005-4.833-2.172-4.834-4.844l0 0c0-0.001 0-0.003 0-0.005l0 0 0 0c0.001-2.678 2.168-4.844 4.845-4.845l0 0c2.675 0.001 4.841 2.167 4.844 4.843l0 0 0 0v0.002c0 0.004 0 0.007 0 0.016l0 0C86.319 28.786 84.154 30.947 81.483 30.947L81.483 30.947 81.483 30.947zM81.477 27.767c0.002 0 0.005 0 0.007 0l0 0c0.915 0.002 1.663-0.743 1.663-1.655l0 0c0-0.006 0-0.009 0-0.015l0 0c0-0.917-0.745-1.662-1.662-1.665l0 0c-0.918 0.003-1.663 0.747-1.665 1.665l0 0v0.048C79.841 27.043 80.575 27.766 81.477 27.767L81.477 27.767 81.477 27.767 81.477 27.767z" fill="#1c4b82" data-fill-palette-color="accent"></path><path d="M68.046 30.947L68.046 30.947c-0.004 0-0.007 0-0.01 0l0 0c-2.673-0.005-4.833-2.172-4.834-4.844l0 0c0-0.001 0-0.003 0-0.005l0 0 0 0c0.001-2.678 2.168-4.844 4.845-4.845l0 0c2.675 0.001 4.841 2.167 4.844 4.843l0 0 0 0v0.002c0 0.004 0 0.007 0 0.016l0 0C72.882 28.786 70.717 30.947 68.046 30.947L68.046 30.947 68.046 30.947zM68.039 27.767c0.002 0 0.005 0 0.007 0l0 0c0.915 0.002 1.663-0.743 1.663-1.655l0 0c0-0.006 0-0.009 0-0.015l0 0c0-0.917-0.745-1.662-1.662-1.665l0 0c-0.918 0.003-1.663 0.747-1.665 1.665l0 0v0.048C66.403 27.043 67.138 27.766 68.039 27.767L68.039 27.767 68.039 27.767 68.039 27.767z" fill="#1c4b82" data-fill-palette-color="accent"></path></g></svg></g></svg></g></svg></g><defs></defs></svg><rect width="395.52" height="33.48065699948662" fill="none" stroke="none" visibility="hidden"></rect></g></svg></g></svg>